<svg width="56" height="56" viewBox="0 0 56 56" fill="none" xmlns="http://www.w3.org/2000/svg">
<g clip-path="url(#clip0_1_388)">
<path d="M42.4513 45.1717H3.60907C2.1126 45.1717 0.899414 43.9585 0.899414 42.462V11.7418C0.899414 10.2453 2.1126 9.0321 3.60907 9.0321H42.4513C43.9478 9.0321 45.161 10.2453 45.161 11.7418V42.462C45.161 43.9585 43.9478 45.1717 42.4513 45.1717Z" fill="#ECEAEC"/>
<path d="M42.4519 4.51599H2.70995C2.3933 4.51599 2.08935 4.57035 1.80695 4.6701L0.838867 10.8279L45.1617 9.9353V7.22565C45.1616 5.72907 43.9485 4.51599 42.4519 4.51599Z" fill="#FF8086"/>
<path d="M2.70966 44.258C2.2108 44.258 1.80644 43.8537 1.80644 43.3548V11.7419H0V43.3548C0 44.8513 1.21319 46.0645 2.70966 46.0645H42.4516C43.6297 46.0645 44.622 45.308 44.9953 44.258H2.70966Z" fill="#DAD8DB"/>
<path d="M56 42.4516C56 45.5993 54.8499 48.4784 52.9469 50.6916C50.6279 53.3886 47.1908 54.6875 43.3548 54.6875C36.3711 54.6875 31.3906 49.4353 31.3906 42.4516C31.3906 38.6149 32.4184 35.1773 35.1164 32.8582C37.3294 30.956 40.2079 29.8064 43.3549 29.8064C50.3385 29.8064 56 35.4679 56 42.4516Z" fill="#FF8086"/>
<path d="M1.80644 8.1291V4.66968C0.758188 5.04319 0 6.04922 0 7.22588V11.742H45.1613V9.93554H3.61288C2.61527 9.93554 1.80644 9.12671 1.80644 8.1291Z" fill="#E5646E"/>
<path d="M6.32206 6.32251C5.32434 6.32251 4.51562 5.51368 4.51562 4.51607V2.70964C4.51562 1.71192 5.32445 0.903198 6.32206 0.903198C7.31978 0.903198 8.1285 1.71203 8.1285 2.70964V4.51607C8.12861 5.51379 7.31978 6.32251 6.32206 6.32251Z" fill="#ECEAEC"/>
<path d="M6.32206 8.12898C5.32434 8.12898 4.51562 7.32015 4.51562 6.32254V4.51599H8.1285V6.32243C8.12861 7.32015 7.31978 8.12898 6.32206 8.12898Z" fill="#DAD8DB"/>
<path d="M38.8388 6.32251C37.8411 6.32251 37.0323 5.51368 37.0323 4.51607V2.70964C37.0323 1.71192 37.8412 0.903198 38.8388 0.903198C39.8365 0.903198 40.6452 1.71203 40.6452 2.70964V4.51607C40.6452 5.51379 39.8364 6.32251 38.8388 6.32251Z" fill="#ECEAEC"/>
<path d="M38.8388 8.1291C37.8411 8.1291 37.0323 7.32027 37.0323 6.32266V4.51611H40.6452V6.32255C40.6452 7.32027 39.8364 8.1291 38.8388 8.1291Z" fill="#DAD8DB"/>
<path d="M44.7101 53.7418C37.7264 53.7418 32.0649 48.0803 32.0649 41.0966C32.0649 37.9497 33.2148 35.0712 35.1168 32.8583C32.4187 35.1774 30.71 38.6147 30.71 42.4514C30.71 49.4352 36.3714 55.0966 43.3551 55.0966C47.192 55.0966 50.6282 53.3895 52.9472 50.6914C50.7344 52.5935 47.857 53.7418 44.7101 53.7418Z" fill="#E5646E"/>
<path d="M45.2712 43.0901C44.9184 42.7373 44.9184 42.1654 45.2712 41.8127L48.9616 38.1222C49.3144 37.7694 49.3144 37.1978 48.9616 36.8451C48.6087 36.4922 48.0371 36.4922 47.6844 36.8451L43.994 40.5355C43.6413 40.8882 43.0693 40.8882 42.7166 40.5355L39.0262 36.8451C38.6733 36.4922 38.1017 36.4922 37.749 36.8451C37.3962 37.1979 37.3962 37.7695 37.749 38.1222L41.4394 41.8127C41.7922 42.1654 41.7922 42.7373 41.4394 43.0901L37.749 46.7805C37.3962 47.1333 37.3962 47.7049 37.749 48.0577C37.9254 48.2341 38.1565 48.3222 38.3876 48.3222C38.6188 48.3222 38.8499 48.2341 39.0263 48.0577L42.7167 44.3672C43.0694 44.0145 43.6414 44.0145 43.9941 44.3672L47.6845 48.0577C47.8609 48.2341 48.0921 48.3222 48.3232 48.3222C48.5543 48.3222 48.7854 48.2341 48.9618 48.0577C49.3146 47.7048 49.3146 47.1332 48.9618 46.7805L45.2712 43.0901Z" fill="white"/>
<path d="M9.03202 21.6772C10.0297 21.6772 10.8385 20.8684 10.8385 19.8708C10.8385 18.8731 10.0297 18.0643 9.03202 18.0643C8.03436 18.0643 7.22559 18.8731 7.22559 19.8708C7.22559 20.8684 8.03436 21.6772 9.03202 21.6772Z" fill="#FF8086"/>
<path d="M9.03202 30.7096C10.0297 30.7096 10.8385 29.9008 10.8385 28.9031C10.8385 27.9054 10.0297 27.0967 9.03202 27.0967C8.03436 27.0967 7.22559 27.9054 7.22559 28.9031C7.22559 29.9008 8.03436 30.7096 9.03202 30.7096Z" fill="#FF8086"/>
<path d="M9.03202 39.7418C10.0297 39.7418 10.8385 38.933 10.8385 37.9353C10.8385 36.9377 10.0297 36.1289 9.03202 36.1289C8.03436 36.1289 7.22559 36.9377 7.22559 37.9353C7.22559 38.933 8.03436 39.7418 9.03202 39.7418Z" fill="#FF8086"/>
<path d="M19.8705 38.8385H15.3544C14.8551 38.8385 14.4512 38.4341 14.4512 37.9353C14.4512 37.4366 14.8552 37.0321 15.3544 37.0321H19.8705C20.3698 37.0321 20.7737 37.4366 20.7737 37.9353C20.7737 38.4341 20.3698 38.8385 19.8705 38.8385Z" fill="white"/>
<path d="M19.8705 29.8063H15.3544C14.8551 29.8063 14.4512 29.4018 14.4512 28.9031C14.4512 28.4043 14.8552 27.9999 15.3544 27.9999H19.8705C20.3698 27.9999 20.7737 28.4043 20.7737 28.9031C20.7737 29.4018 20.3698 29.8063 19.8705 29.8063Z" fill="white"/>
<path d="M19.8705 20.7741H15.3544C14.8551 20.7741 14.4512 20.3696 14.4512 19.8709C14.4512 19.3721 14.8552 18.9677 15.3544 18.9677H19.8705C20.3698 18.9677 20.7737 19.3721 20.7737 19.8709C20.7737 20.3696 20.3698 20.7741 19.8705 20.7741Z" fill="white"/>
<path d="M27.0965 21.6772C28.0941 21.6772 28.9029 20.8684 28.9029 19.8708C28.9029 18.8731 28.0941 18.0643 27.0965 18.0643C26.0988 18.0643 25.29 18.8731 25.29 19.8708C25.29 20.8684 26.0988 21.6772 27.0965 21.6772Z" fill="#FF8086"/>
<path d="M27.0965 30.7094C28.0941 30.7094 28.9029 29.9007 28.9029 28.903C28.9029 27.9053 28.0941 27.0966 27.0965 27.0966C26.0988 27.0966 25.29 27.9053 25.29 28.903C25.29 29.9007 26.0988 30.7094 27.0965 30.7094Z" fill="#FF8086"/>
<path d="M27.0965 39.7421C28.0941 39.7421 28.9029 38.9334 28.9029 37.9357C28.9029 36.938 28.0941 36.1293 27.0965 36.1293C26.0988 36.1293 25.29 36.938 25.29 37.9357C25.29 38.9334 26.0988 39.7421 27.0965 39.7421Z" fill="#FF8086"/>
<path d="M37.9359 29.8063H33.4198C32.9205 29.8063 32.5166 29.4018 32.5166 28.9031C32.5166 28.4043 32.9206 27.9999 33.4198 27.9999H37.9359C38.4352 27.9999 38.8391 28.4043 38.8391 28.9031C38.8391 29.4018 38.4351 29.8063 37.9359 29.8063Z" fill="white"/>
<path d="M37.9359 20.7741H33.4198C32.9205 20.7741 32.5166 20.3696 32.5166 19.8709C32.5166 19.3721 32.9206 18.9677 33.4198 18.9677H37.9359C38.4352 18.9677 38.8391 19.3721 38.8391 19.8709C38.8391 20.3696 38.4351 20.7741 37.9359 20.7741Z" fill="white"/>
</g>
<defs>
<clipPath id="clip0_1_388">
<rect width="56" height="56" fill="white"/>
</clipPath>
</defs>
</svg>
