<svg width="20" height="20" viewBox="0 0 20 20" fill="none" xmlns="http://www.w3.org/2000/svg">
<path d="M18.5063 4.84906C18.2655 3.88656 17.4963 3.1524 16.5447 2.97823C16.2672 2.9274 15.988 2.88073 15.7072 2.83656V2.0599C15.7072 1.5999 15.3338 1.22656 14.8738 1.22656C14.4138 1.22656 14.0405 1.5999 14.0405 2.0599V2.61573C11.3797 2.32823 8.62049 2.32823 5.95966 2.61573V2.0599C5.95966 1.5999 5.58633 1.22656 5.12633 1.22656C4.66633 1.22656 4.29299 1.5999 4.29299 2.0599V2.83656C4.01216 2.88073 3.73299 2.9274 3.45549 2.97823C2.50466 3.15156 1.73466 3.88573 1.49383 4.84823C0.608828 8.38656 0.608828 12.7824 1.49383 16.3216C1.73466 17.2841 2.50466 18.0182 3.45549 18.1916C5.56549 18.5766 7.78299 18.7699 10.0005 18.7699C12.218 18.7699 14.4347 18.5774 16.5455 18.1916C17.4963 18.0182 18.2663 17.2841 18.5072 16.3216C19.3922 12.7832 19.3913 8.3874 18.5063 4.84906ZM3.75466 4.61823C5.76883 4.25073 7.88383 4.06656 9.99966 4.06656C12.1155 4.06656 14.2313 4.25073 16.2447 4.61823C16.5538 4.67406 16.8063 4.92406 16.8888 5.25323C16.9605 5.54073 17.0255 5.83573 17.0847 6.13656H2.91466C2.97383 5.83573 3.03883 5.54073 3.11049 5.25323C3.19299 4.92406 3.44549 4.6749 3.75466 4.61823ZM16.8888 15.9174C16.8063 16.2466 16.5538 16.4957 16.2447 16.5524C12.2172 17.2882 7.78216 17.2882 3.75466 16.5524C3.44549 16.4966 3.19299 16.2466 3.11049 15.9174C2.50049 13.4799 2.35049 10.5057 2.65799 7.80323H17.3413C17.6497 10.5066 17.4988 13.4799 16.8888 15.9174Z" fill="black"/>
<path d="M6.40951 11.6667C6.86974 11.6667 7.24284 11.2936 7.24284 10.8333C7.24284 10.3731 6.86974 10 6.40951 10C5.94927 10 5.57617 10.3731 5.57617 10.8333C5.57617 11.2936 5.94927 11.6667 6.40951 11.6667Z" fill="black"/>
<path d="M6.40951 14.7839C6.86974 14.7839 7.24284 14.4108 7.24284 13.9505C7.24284 13.4903 6.86974 13.1172 6.40951 13.1172C5.94927 13.1172 5.57617 13.4903 5.57617 13.9505C5.57617 14.4108 5.94927 14.7839 6.40951 14.7839Z" fill="black"/>
<path d="M10.0052 11.6628C10.4654 11.6628 10.8385 11.2897 10.8385 10.8294C10.8385 10.3692 10.4654 9.99609 10.0052 9.99609C9.54497 9.99609 9.17188 10.3692 9.17188 10.8294C9.17188 11.2897 9.54497 11.6628 10.0052 11.6628Z" fill="black"/>
<path d="M10.0052 14.776C10.4654 14.776 10.8385 14.4029 10.8385 13.9427C10.8385 13.4825 10.4654 13.1094 10.0052 13.1094C9.54497 13.1094 9.17188 13.4825 9.17188 13.9427C9.17188 14.4029 9.54497 14.776 10.0052 14.776Z" fill="black"/>
<path d="M13.5931 11.6628C14.0533 11.6628 14.4264 11.2897 14.4264 10.8294C14.4264 10.3692 14.0533 9.99609 13.5931 9.99609C13.1329 9.99609 12.7598 10.3692 12.7598 10.8294C12.7598 11.2897 13.1329 11.6628 13.5931 11.6628Z" fill="black"/>
<path d="M13.5931 14.776C14.0533 14.776 14.4264 14.4029 14.4264 13.9427C14.4264 13.4825 14.0533 13.1094 13.5931 13.1094C13.1329 13.1094 12.7598 13.4825 12.7598 13.9427C12.7598 14.4029 13.1329 14.776 13.5931 14.776Z" fill="black"/>
</svg>
