<svg width="20" height="20" viewBox="0 0 20 20" fill="none" xmlns="http://www.w3.org/2000/svg">
<path d="M9.16536 18.3307H4.9987C4.55667 18.3307 4.13275 18.1551 3.82019 17.8426C3.50763 17.53 3.33203 17.1061 3.33203 16.6641V3.33074C3.33203 2.88871 3.50763 2.46478 3.82019 2.15222C4.13275 1.83966 4.55667 1.66407 4.9987 1.66407H11.6654C11.9294 1.66342 12.191 1.71508 12.435 1.81606C12.679 1.91703 12.9006 2.06534 13.087 2.2524L16.077 5.2424C16.2641 5.4288 16.4124 5.65039 16.5134 5.8944C16.6144 6.1384 16.666 6.39999 16.6654 6.66407V10.8307" stroke="#F33636" stroke-width="1.5" stroke-linecap="round" stroke-linejoin="round"/>
<path d="M11.668 1.66406V5.83073C11.668 6.05174 11.7558 6.2637 11.912 6.41998C12.0683 6.57626 12.2803 6.66406 12.5013 6.66406H16.668" stroke="#F33636" stroke-width="1.5" stroke-linecap="round" stroke-linejoin="round"/>
<path d="M12.5 14.1641L16.6667 18.3307" stroke="#F33636" stroke-width="1.5" stroke-linecap="round" stroke-linejoin="round"/>
<path d="M16.6667 14.1641L12.5 18.3307" stroke="#F33636" stroke-width="1.5" stroke-linecap="round" stroke-linejoin="round"/>
</svg>
