<svg width="20" height="20" viewBox="0 0 20 20" fill="none" xmlns="http://www.w3.org/2000/svg">
<path d="M18.3346 14.1667C18.3346 14.6087 18.159 15.0326 17.8465 15.3452C17.5339 15.6577 17.11 15.8333 16.668 15.8333H5.6913C5.24931 15.8334 4.82546 16.0091 4.51297 16.3217L2.67797 18.1567C2.59522 18.2394 2.4898 18.2957 2.37504 18.3186C2.26028 18.3414 2.14133 18.3297 2.03322 18.2849C1.92512 18.2401 1.83272 18.1643 1.76771 18.067C1.70269 17.9697 1.66798 17.8553 1.66797 17.7383V4.16667C1.66797 3.72464 1.84356 3.30072 2.15612 2.98816C2.46868 2.67559 2.89261 2.5 3.33464 2.5H16.668C17.11 2.5 17.5339 2.67559 17.8465 2.98816C18.159 3.30072 18.3346 3.72464 18.3346 4.16667V14.1667Z" stroke="black" stroke-width="1.5" stroke-linecap="round" stroke-linejoin="round"/>
<path d="M5.83203 9.16406H14.1654" stroke="black" stroke-width="1.5" stroke-linecap="round" stroke-linejoin="round"/>
<path d="M5.83203 12.5H10.832" stroke="black" stroke-width="1.5" stroke-linecap="round" stroke-linejoin="round"/>
<path d="M5.83203 5.83594H12.4987" stroke="black" stroke-width="1.5" stroke-linecap="round" stroke-linejoin="round"/>
</svg>
