<svg width="35" height="35" viewBox="0 0 35 35" fill="none" xmlns="http://www.w3.org/2000/svg">
<path d="M34.2515 7.05034C33.5932 4.07807 30.7118 1.35532 27.7314 0.776998C25.9157 0.414009 20.8496 -0.0344281 17.5 0.000435158C14.1504 -0.0364789 9.08428 0.410591 7.26865 0.774947C4.28818 1.35532 1.40684 4.07807 0.751953 7.05034C0.373242 8.85502 0.00546875 11.3105 0 14.6622C0.00546875 18.0118 0.373242 20.4679 0.751953 22.2733C1.41025 25.2456 4.2916 27.9683 7.27207 28.5466C8.25234 28.7421 10.1801 28.9636 12.2739 29.1195C12.5109 29.4918 12.7682 29.8883 13.0457 30.3089C14.1572 31.9919 15.0069 33.1643 15.6509 33.9812C16.7228 35.3402 18.2834 35.3402 19.3553 33.9812C19.9992 33.1643 20.8489 31.9919 21.9605 30.3089C22.238 29.8878 22.4953 29.4914 22.7322 29.1195C24.8261 28.9636 26.7545 28.7421 27.7348 28.5466C30.7152 27.9683 33.5966 25.2456 34.2549 22.2733C34.6295 20.4679 34.998 18.0131 35.0034 14.6622C34.9945 11.3098 34.6261 8.85571 34.2515 7.05034Z" fill="#DD4247"/>
<path d="M17.5 0.000435158C14.1504 -0.0364789 9.08428 0.410591 7.26865 0.774947C4.28818 1.35532 1.40684 4.07807 0.751953 7.05034C0.373242 8.85503 0.00546875 11.3105 0 14.6615C0.00546875 18.0111 0.373242 20.4679 0.751953 22.2733C1.13955 24.0253 2.30098 25.6913 3.79941 26.8814C5.25014 27.227 6.73641 27.4011 8.22774 27.4002C18.7298 27.4002 27.2433 18.8868 27.2433 8.3854C27.2456 5.64989 26.6556 2.9463 25.5138 0.460494C23.1786 0.198677 19.8994 -0.0241742 17.5 0.000435158Z" fill="#E55353"/>
<path d="M19.4332 24.5978C19.3877 24.8106 19.2816 25.0057 19.1276 25.1597C18.9737 25.3136 18.7786 25.4197 18.5657 25.4652C17.8595 25.5746 17.1406 25.5746 16.4343 25.4652C16.2214 25.4198 16.0262 25.3138 15.8722 25.1598C15.7183 25.0059 15.6122 24.8107 15.5668 24.5978C15.4584 23.8916 15.4584 23.1731 15.5668 22.467C15.6125 22.2544 15.7187 22.0596 15.8726 21.906C16.0265 21.7525 16.2216 21.6467 16.4343 21.6016C17.1406 21.4922 17.8595 21.4922 18.5657 21.6016C18.7787 21.6469 18.974 21.7529 19.1279 21.9069C19.2819 22.0608 19.3879 22.2561 19.4332 22.469C19.5417 23.1752 19.5417 23.8937 19.4332 24.5998V24.5978Z" fill="white"/>
<path d="M15.5613 6.50374C15.5613 5.98957 15.7656 5.49646 16.1292 5.13289C16.4927 4.76932 16.9858 4.56506 17.5 4.56506C18.0142 4.56506 18.5073 4.76932 18.8709 5.13289C19.2344 5.49646 19.4387 5.98957 19.4387 6.50374V17.3777C19.4387 17.8918 19.2344 18.3849 18.8709 18.7485C18.5073 19.1121 18.0142 19.3163 17.5 19.3163C16.9858 19.3163 16.4927 19.1121 16.1292 18.7485C15.7656 18.3849 15.5613 17.8918 15.5613 17.3777V6.50374Z" fill="white"/>
</svg>
