<svg width="56" height="56" viewBox="0 0 56 56" fill="none" xmlns="http://www.w3.org/2000/svg">
<path d="M39.3537 7.97289C38.9348 7.97289 38.506 7.84798 38.0795 7.60178C36.6032 6.74953 35.4902 4.65391 35.4902 2.72705C35.4902 1.12142 36.3665 0 37.6216 0C38.0405 0 38.4693 0.124906 38.8958 0.371109C40.372 1.22336 41.4853 3.31898 41.4853 5.24584C41.4853 6.85147 40.6088 7.97289 39.3537 7.97289ZM37.6216 1.63253C37.3278 1.63253 37.1225 2.08261 37.1225 2.72705C37.1225 4.04819 37.9345 5.63303 38.8958 6.18789C39.0685 6.28764 39.2268 6.34036 39.3537 6.34036C39.6475 6.34036 39.8528 5.89028 39.8528 5.24584C39.8528 3.92481 39.0408 2.33986 38.0795 1.785C37.9069 1.68525 37.7486 1.63253 37.6216 1.63253Z" fill="#D7D1EB"/>
<path d="M31.924 12.2932C31.5053 12.2932 31.0766 12.1684 30.65 11.9221C29.1738 11.0697 28.0605 8.97411 28.0605 7.04736C28.0605 5.44173 28.9371 4.32031 30.1922 4.32031C30.6111 4.32031 31.0396 4.44522 31.4662 4.69142C32.9423 5.54378 34.0556 7.63941 34.0556 9.56616C34.0555 11.1719 33.179 12.2932 31.924 12.2932ZM30.192 5.95284C29.8983 5.95284 29.693 6.40292 29.693 7.04736C29.693 8.36839 30.505 9.95334 31.466 10.5082C31.6387 10.608 31.797 10.6607 31.9239 10.6607C32.2177 10.6607 32.423 10.2106 32.423 9.56616C32.423 8.24512 31.611 6.66028 30.6499 6.10531C30.4772 6.00567 30.3189 5.95284 30.192 5.95284Z" fill="#D7D1EB"/>
<path d="M24.4748 16.6682C24.0561 16.6682 23.6272 16.5434 23.2008 16.2971C21.7245 15.4447 20.6113 13.3491 20.6113 11.4224C20.6113 9.81673 21.4879 8.69531 22.7429 8.69531C23.162 8.69531 23.5906 8.82022 24.0169 9.06653C25.4932 9.91878 26.6064 12.0144 26.6064 13.9412C26.6064 15.5469 25.7299 16.6682 24.4748 16.6682ZM22.7429 10.3278C22.4492 10.3278 22.2439 10.7779 22.2439 11.4224C22.2439 12.7434 23.0559 14.3283 24.0169 14.8832C24.1896 14.983 24.3479 15.0357 24.4748 15.0357C24.7687 15.0357 24.974 14.5856 24.974 13.9412C24.974 12.6201 24.162 11.0352 23.2008 10.4803C23.0281 10.3806 22.8697 10.3278 22.7429 10.3278Z" fill="#D7D1EB"/>
<path d="M17.0453 20.9885C16.6263 20.9885 16.1977 20.8637 15.7711 20.6174C14.2949 19.765 13.1816 17.6694 13.1816 15.7427C13.1816 14.137 14.0582 13.0156 15.3132 13.0156C15.7323 13.0156 16.1609 13.1405 16.5875 13.3867C18.0637 14.239 19.1769 16.3347 19.1769 18.2615C19.1768 19.8671 18.3003 20.9885 17.0453 20.9885ZM15.3131 14.6482C15.0194 14.6482 14.8141 15.0982 14.8141 15.7427C14.8141 17.0637 15.6261 18.6487 16.5872 19.2035C16.76 19.3033 16.9183 19.356 17.0451 19.356C17.3389 19.356 17.5441 18.9059 17.5441 18.2615C17.5441 16.9403 16.7321 15.3555 15.7709 14.8005C15.5983 14.7009 15.44 14.6482 15.3131 14.6482Z" fill="#D7D1EB"/>
<path d="M12.1517 39.2218C12.6803 39.527 13.2006 39.948 13.6982 40.473L20.2448 47.3799L14.8494 31.8047L4.05859 38.0348L10.6051 38.6872C11.1028 38.7368 11.6231 38.9167 12.1517 39.2218Z" fill="url(#paint0_linear_1_99)"/>
<path d="M55.6025 38.2209L43.1102 2.17648L41.458 1.22656L12.1505 18.1444L0.0915439 39.0765C-0.176097 39.5402 0.182216 40.4599 0.661059 40.7364C0.735325 40.7793 0.812544 40.8066 0.890747 40.8145L11.341 41.8559C11.6026 41.882 11.8766 41.9776 12.1505 42.1358C12.4243 42.2939 12.6983 42.5146 12.96 42.7906L23.4102 53.816C23.6284 54.0429 23.9573 54.099 24.0733 54.0278L24.5317 53.7631C24.7391 54.15 25.0395 54.4605 25.3932 54.6792C25.3927 54.6793 25.3914 54.6795 25.3914 54.6795L27.104 55.6662C27.104 55.6662 27.1045 55.6635 27.1047 55.663C27.8282 56.0832 28.7544 56.1296 29.5496 55.6706L54.4516 41.2959C55.5214 40.6783 56.0039 39.3894 55.6025 38.2209ZM13.697 40.4733C13.1994 39.9483 12.6791 39.5273 12.1505 39.2221C11.6219 38.917 11.1016 38.737 10.6039 38.6875L4.05737 38.0351L12.1505 24.0174L20.2436 47.3803L13.697 40.4733Z" fill="#A996EB"/>
<path d="M55.6025 38.2209L43.1101 2.17648L41.458 1.22656L12.1504 18.1444L24.3723 53.4013C24.5642 53.96 24.9349 54.396 25.3931 54.6794C25.3926 54.6795 25.3913 54.6798 25.3913 54.6798L27.1039 55.6664C27.1039 55.6664 27.1045 55.6637 27.1046 55.6633C27.8281 56.0834 28.7543 56.1299 29.5495 55.6708L54.4515 41.2961C55.5213 40.6783 56.0039 39.3894 55.6025 38.2209Z" fill="url(#paint1_linear_1_99)"/>
<path d="M13.8027 19.0976L43.1102 2.17969L55.6027 38.2241C56.0041 39.3926 55.5215 40.6815 54.4516 41.2992L29.5496 55.6739C28.2211 56.4407 26.5229 55.805 26.0245 54.3544L13.8027 19.0976Z" fill="#E9E5F6"/>
<path d="M16.3765 26.5223L45.6827 9.60231L43.1102 2.17969L13.8027 19.0976L16.3765 26.5223Z" fill="#FF2741"/>
<path d="M4.05859 38.0373L12.1517 24.0195L14.8494 31.8071L4.05859 38.0373Z" fill="#49456C"/>
<path d="M32.8768 23.3828L28.0723 26.1567L29.959 31.5698L34.7635 28.7959L32.8768 23.3828Z" fill="#C5BAEB"/>
<path d="M38.91 19.8984L34.1055 22.6723L35.9922 28.0854L40.7967 25.3115L38.91 19.8984Z" fill="#C5BAEB"/>
<path d="M44.9451 16.4141L40.1406 19.1879L42.0273 24.601L46.8319 21.827L44.9451 16.4141Z" fill="#C5BAEB"/>
<path d="M29.2088 33.7305L24.4043 36.5043L26.291 41.9174L31.0955 39.1435L29.2088 33.7305Z" fill="#C5BAEB"/>
<path d="M35.242 30.2422L30.4375 33.016L32.3242 38.429L37.1287 35.6552L35.242 30.2422Z" fill="#C5BAEB"/>
<path d="M41.2772 26.7578L36.4727 29.5317L38.3594 34.9447L43.1639 32.1709L41.2772 26.7578Z" fill="#C5BAEB"/>
<path d="M47.3104 23.2734L42.5059 26.0474L44.3927 31.4604L49.1971 28.6865L47.3104 23.2734Z" fill="#C5BAEB"/>
<path d="M31.576 40.6055L26.7715 43.3793L28.6582 48.7924L33.4627 46.0185L31.576 40.6055Z" fill="#C5BAEB"/>
<path d="M37.6092 37.1211L32.8047 39.895L34.6914 45.308L39.4959 42.5341L37.6092 37.1211Z" fill="#C5BAEB"/>
<path d="M43.6444 33.6367L38.8398 36.4106L40.7266 41.8237L45.5311 39.0498L43.6444 33.6367Z" fill="#C5BAEB"/>
<path d="M17.4138 20.9282C17.0641 20.9282 16.7535 20.7058 16.641 20.3745C16.4961 19.9485 16.7251 19.4838 17.1512 19.339C17.3468 19.2725 17.5442 18.9132 17.5442 18.2605C17.5442 16.9393 16.7322 15.3545 15.771 14.7995C15.5165 14.6526 15.2984 14.6045 15.1599 14.6845C15.0003 14.7766 14.8142 15.1087 14.8142 15.7417C14.8142 16.1918 14.448 16.558 13.998 16.558C13.5478 16.558 13.1816 16.1918 13.1816 15.7417C13.1816 14.5977 13.6053 13.697 14.3438 13.2707C14.9944 12.8952 15.8065 12.9349 16.5874 13.3857C18.0636 14.238 19.1768 16.3337 19.1768 18.2605C19.1768 19.5845 18.616 20.5654 17.6767 20.8847C17.5919 20.9135 17.5034 20.9282 17.4138 20.9282Z" fill="#D7D1EB"/>
<path d="M24.8455 16.6077C24.4959 16.6077 24.1852 16.3851 24.0727 16.054C23.9279 15.6279 24.1568 15.1634 24.5827 15.0186C24.7784 14.9521 24.9758 14.5928 24.9758 13.94C24.9758 12.619 24.1638 11.034 23.2026 10.4792C22.9481 10.3323 22.73 10.2843 22.5915 10.3641C22.432 10.4562 22.2458 10.7883 22.2458 11.4213C22.2458 11.8714 21.8796 12.2376 21.4294 12.2376C20.9795 12.2376 20.6133 11.8714 20.6133 11.4213C20.6133 10.2774 21.0369 9.37668 21.7754 8.95033C22.4263 8.57485 23.2384 8.61466 24.0189 9.0654C25.4951 9.91765 26.6083 12.0133 26.6083 13.94C26.6083 15.2639 26.0476 16.245 25.1084 16.5643C25.0232 16.5931 24.9348 16.6077 24.8455 16.6077Z" fill="#D7D1EB"/>
<path d="M32.291 12.2329C31.9413 12.2329 31.6307 12.0103 31.5181 11.6791C31.3734 11.2531 31.602 10.7886 32.0281 10.6437C32.2238 10.5772 32.4211 10.2179 32.4211 9.56502C32.4211 8.24399 31.6091 6.65915 30.648 6.10418C30.3935 5.95729 30.1754 5.90927 30.037 5.98912C29.8775 6.08121 29.6912 6.41327 29.6912 7.04633C29.6912 7.49641 29.325 7.8626 28.8749 7.8626C28.4249 7.8626 28.0586 7.49641 28.0586 7.04633C28.0586 5.90238 28.4822 5.00168 29.2207 4.57533C29.8714 4.19985 30.6837 4.23966 31.4642 4.6904C32.9403 5.54265 34.0537 7.63827 34.0537 9.56502C34.0537 10.889 33.4929 11.87 32.5537 12.1893C32.4686 12.2184 32.3803 12.2329 32.291 12.2329Z" fill="#D7D1EB"/>
<path d="M39.7225 7.91237C39.3728 7.91237 39.0621 7.6899 38.9495 7.35871C38.8048 6.93258 39.0337 6.46807 39.4598 6.32326C39.6555 6.25676 39.8528 5.89746 39.8528 5.24471C39.8528 3.92368 39.0408 2.33873 38.0795 1.78387C37.825 1.63687 37.6072 1.58874 37.4685 1.6688C37.309 1.7609 37.1225 2.09307 37.1225 2.72602C37.1225 3.1761 36.7564 3.54229 36.3064 3.54229C35.8564 3.54229 35.4902 3.1761 35.4902 2.72602C35.4902 1.58218 35.9138 0.681475 36.6522 0.255022C37.3029 -0.120462 38.115 -0.0806498 38.896 0.370085C40.3721 1.22233 41.4854 3.31796 41.4854 5.24482C41.4854 6.56869 40.9247 7.54968 39.9854 7.86905C39.8996 7.89771 39.8114 7.91237 39.7225 7.91237Z" fill="#D7D1EB"/>
<defs>
<linearGradient id="paint0_linear_1_99" x1="10.7977" y1="37.2472" x2="12.0909" y2="39.4869" gradientUnits="userSpaceOnUse">
<stop stop-color="#7662BD"/>
<stop offset="1" stop-color="#594A8E"/>
</linearGradient>
<linearGradient id="paint1_linear_1_99" x1="29.9368" y1="35.893" x2="35.5635" y2="26.1474" gradientUnits="userSpaceOnUse">
<stop stop-color="#C5BAEB"/>
<stop offset="1" stop-color="#E9E5F6"/>
</linearGradient>
</defs>
</svg>
