<svg width="14" height="14" viewBox="0 0 14 14" fill="none" xmlns="http://www.w3.org/2000/svg">
<path d="M7 7H7.00583" stroke="#949494" stroke-width="1.5" stroke-linecap="round" stroke-linejoin="round"/>
<path d="M9.33464 3.4974V2.33073C9.33464 2.02131 9.21172 1.72456 8.99293 1.50577C8.77413 1.28698 8.47739 1.16406 8.16797 1.16406H5.83464C5.52522 1.16406 5.22847 1.28698 5.00968 1.50577C4.79089 1.72456 4.66797 2.02131 4.66797 2.33073V3.4974" stroke="#949494" stroke-width="1.5" stroke-linecap="round" stroke-linejoin="round"/>
<path d="M12.8346 7.58594C11.1038 8.72868 9.07537 9.33786 7.0013 9.33786C4.92723 9.33786 2.89884 8.72868 1.16797 7.58594" stroke="#949494" stroke-width="1.5" stroke-linecap="round" stroke-linejoin="round"/>
<path d="M11.668 3.5H2.33464C1.6903 3.5 1.16797 4.02233 1.16797 4.66667V10.5C1.16797 11.1443 1.6903 11.6667 2.33464 11.6667H11.668C12.3123 11.6667 12.8346 11.1443 12.8346 10.5V4.66667C12.8346 4.02233 12.3123 3.5 11.668 3.5Z" stroke="#949494" stroke-width="1.5" stroke-linecap="round" stroke-linejoin="round"/>
</svg>
