<svg width="20" height="20" viewBox="0 0 20 20" fill="none" xmlns="http://www.w3.org/2000/svg">
<path d="M16.6654 8.33073C16.6654 12.4916 12.0495 16.8249 10.4995 18.1632C10.3551 18.2718 10.1794 18.3305 9.9987 18.3305C9.81803 18.3305 9.64226 18.2718 9.49786 18.1632C7.94786 16.8249 3.33203 12.4916 3.33203 8.33073C3.33203 6.56262 4.03441 4.86693 5.28465 3.61668C6.5349 2.36644 8.23059 1.66406 9.9987 1.66406C11.7668 1.66406 13.4625 2.36644 14.7127 3.61668C15.963 4.86693 16.6654 6.56262 16.6654 8.33073Z" stroke="black" stroke-width="1.5" stroke-linecap="round" stroke-linejoin="round"/>
<path d="M10 10.8359C11.3807 10.8359 12.5 9.71665 12.5 8.33594C12.5 6.95523 11.3807 5.83594 10 5.83594C8.61929 5.83594 7.5 6.95523 7.5 8.33594C7.5 9.71665 8.61929 10.8359 10 10.8359Z" stroke="black" stroke-width="1.5" stroke-linecap="round" stroke-linejoin="round"/>
</svg>
