<svg width="20" height="20" viewBox="0 0 20 20" fill="none" xmlns="http://www.w3.org/2000/svg">
<path d="M10.8346 13.3359H6.66797" stroke="black" stroke-width="1.5" stroke-linecap="round" stroke-linejoin="round"/>
<path d="M11.668 6.66406H6.66797" stroke="black" stroke-width="1.5" stroke-linecap="round" stroke-linejoin="round"/>
<path d="M13.3346 10H6.66797" stroke="black" stroke-width="1.5" stroke-linecap="round" stroke-linejoin="round"/>
<path d="M3.33203 2.50119C3.33203 2.28018 3.41983 2.06822 3.57611 1.91194C3.73239 1.75566 3.94435 1.66786 4.16536 1.66786C4.37171 1.66672 4.57409 1.72455 4.7487 1.83452L5.5262 2.33452C5.7004 2.44584 5.90281 2.50499 6.10953 2.50499C6.31626 2.50499 6.51867 2.44584 6.69286 2.33452L7.4712 1.83452C7.6454 1.72321 7.84781 1.66406 8.05453 1.66406C8.26126 1.66406 8.46367 1.72321 8.63786 1.83452L9.41536 2.33452C9.58956 2.44584 9.79197 2.50499 9.9987 2.50499C10.2054 2.50499 10.4078 2.44584 10.582 2.33452L11.3595 1.83452C11.5337 1.72321 11.7361 1.66406 11.9429 1.66406C12.1496 1.66406 12.352 1.72321 12.5262 1.83452L13.3045 2.33452C13.4787 2.44584 13.6811 2.50499 13.8879 2.50499C14.0946 2.50499 14.297 2.44584 14.4712 2.33452L15.2487 1.83452C15.4233 1.72455 15.6257 1.66672 15.832 1.66786C16.053 1.66786 16.265 1.75566 16.4213 1.91194C16.5776 2.06822 16.6654 2.28018 16.6654 2.50119V17.5012C16.6654 17.7222 16.5776 17.9342 16.4213 18.0904C16.265 18.2467 16.053 18.3345 15.832 18.3345C15.6257 18.3357 15.4233 18.2778 15.2487 18.1679L14.4712 17.6679C14.297 17.5565 14.0946 17.4974 13.8879 17.4974C13.6811 17.4974 13.4787 17.5565 13.3045 17.6679L12.5262 18.1679C12.352 18.2792 12.1496 18.3383 11.9429 18.3383C11.7361 18.3383 11.5337 18.2792 11.3595 18.1679L10.582 17.6679C10.4078 17.5565 10.2054 17.4974 9.9987 17.4974C9.79197 17.4974 9.58956 17.5565 9.41536 17.6679L8.63786 18.1679C8.46367 18.2792 8.26126 18.3383 8.05453 18.3383C7.84781 18.3383 7.6454 18.2792 7.4712 18.1679L6.69286 17.6679C6.51867 17.5565 6.31626 17.4974 6.10953 17.4974C5.90281 17.4974 5.7004 17.5565 5.5262 17.6679L4.7487 18.1679C4.57409 18.2778 4.37171 18.3357 4.16536 18.3345C3.94435 18.3345 3.73239 18.2467 3.57611 18.0904C3.41983 17.9342 3.33203 17.7222 3.33203 17.5012V2.50119Z" stroke="black" stroke-width="1.5" stroke-linecap="round" stroke-linejoin="round"/>
</svg>
