<svg width="20" height="20" viewBox="0 0 20 20" fill="none" xmlns="http://www.w3.org/2000/svg">
<g clip-path="url(#clip0_1_218)">
<path d="M11.528 13.8041C11.7001 13.8831 11.894 13.9012 12.0777 13.8553C12.2615 13.8094 12.4241 13.7022 12.5388 13.5516L12.8346 13.1641C12.9899 12.9571 13.1912 12.7891 13.4226 12.6734C13.654 12.5576 13.9092 12.4974 14.168 12.4974H16.668C17.11 12.4974 17.5339 12.673 17.8465 12.9856C18.159 13.2981 18.3346 13.722 18.3346 14.1641V16.6641C18.3346 17.1061 18.159 17.53 17.8465 17.8426C17.5339 18.1551 17.11 18.3307 16.668 18.3307C12.6897 18.3307 8.87441 16.7504 6.06137 13.9373C3.24832 11.1243 1.66797 7.30898 1.66797 3.33073C1.66797 2.8887 1.84356 2.46478 2.15612 2.15222C2.46868 1.83966 2.89261 1.66406 3.33464 1.66406H5.83464C6.27666 1.66406 6.70059 1.83966 7.01315 2.15222C7.32571 2.46478 7.5013 2.8887 7.5013 3.33073V5.83073C7.5013 6.08947 7.44106 6.34466 7.32535 6.57609C7.20963 6.80751 7.04163 7.00882 6.83464 7.16406L6.44464 7.45656C6.29165 7.57338 6.18382 7.73955 6.13946 7.92685C6.0951 8.11416 6.11695 8.31104 6.2013 8.48406C7.3402 10.7973 9.21332 12.6681 11.528 13.8041Z" stroke="black" stroke-width="1.5" stroke-linecap="round" stroke-linejoin="round"/>
</g>
<defs>
<clipPath id="clip0_1_218">
<rect width="20" height="20" fill="white"/>
</clipPath>
</defs>
</svg>
