<svg width="18" height="18" viewBox="0 0 18 18" fill="none" xmlns="http://www.w3.org/2000/svg">
<g clip-path="url(#clip0_1_682)">
<path d="M17.3607 2.48305C16.9739 2.44779 16.6319 2.73273 16.5967 3.11945L16.5035 4.14141C14.9229 1.65916 12.1792 0 9.00002 0C5.57998 0 2.566 1.95195 1.06982 4.88159C0.893199 5.22742 1.03038 5.65095 1.37621 5.82757C1.72211 6.0042 2.14557 5.86705 2.3222 5.52118C3.58842 3.04182 6.13116 1.40625 9.00002 1.40625C11.6148 1.40625 13.9746 2.76789 15.3265 4.90106L14.3239 4.18504C14.0079 3.95937 13.5688 4.03256 13.3431 4.34855C13.1174 4.66457 13.1906 5.10367 13.5066 5.32937L16.5468 7.50066C16.9923 7.81829 17.6069 7.52752 17.6556 6.99233L17.997 3.24714C18.0323 2.86038 17.7474 2.51831 17.3607 2.48305Z" fill="black"/>
<path d="M16.6238 12.1724C16.278 11.9959 15.8545 12.133 15.6778 12.4788C14.4116 14.9582 11.8689 16.5938 9.00002 16.5938C6.38521 16.5938 4.02545 15.2321 2.67355 13.099L3.6761 13.815C3.99212 14.0407 4.43122 13.9675 4.65692 13.6515C4.88259 13.3355 4.8094 12.8963 4.49341 12.6706L1.45328 10.4994C1.01316 10.1849 0.393632 10.467 0.344413 11.0077L0.00301092 14.7529C-0.0322508 15.1396 0.252691 15.4817 0.639374 15.5169C1.02659 15.5521 1.3682 15.2669 1.40342 14.8805L1.49659 13.8586C3.07714 16.3409 5.82088 18 9.00002 18C12.4201 18 15.434 16.0481 16.9302 13.1184C17.1068 12.7726 16.9697 12.3491 16.6238 12.1724Z" fill="black"/>
</g>
<defs>
<clipPath id="clip0_1_682">
<rect width="18" height="18" fill="white"/>
</clipPath>
</defs>
</svg>
